<?xml version="1.0" encoding="UTF-8" standalone="no"?>
<!-- Created with Inkscape (http://www.inkscape.org/) -->

<svg
   xmlns:dc="http://purl.org/dc/elements/1.1/"
   xmlns:cc="http://creativecommons.org/ns#"
   xmlns:rdf="http://www.w3.org/1999/02/22-rdf-syntax-ns#"
   xmlns:svg="http://www.w3.org/2000/svg"
   xmlns="http://www.w3.org/2000/svg"
   xmlns:sodipodi="http://sodipodi.sourceforge.net/DTD/sodipodi-0.dtd"
   xmlns:inkscape="http://www.inkscape.org/namespaces/inkscape"
   width="189.02281mm"
   height="40.549175mm"
   viewBox="0 0 669.76587 143.67818"
   id="svg2"
   version="1.1"
   inkscape:version="0.91 r13725"
   sodipodi:docname="drawing.svg">
  <defs
     id="defs4">
    <filter
       inkscape:collect="always"
       style="color-interpolation-filters:sRGB"
       id="filter4231"
       x="-0.14038853"
       width="1.2807771"
       y="-0.27551249"
       height="1.551025">
      <feGaussianBlur
         inkscape:collect="always"
         stdDeviation="7.0047485"
         id="feGaussianBlur4233" />
    </filter>
  </defs>
  <sodipodi:namedview
     id="base"
     pagecolor="#ffffff"
     bordercolor="#666666"
     borderopacity="1.0"
     inkscape:pageopacity="0.0"
     inkscape:pageshadow="2"
     inkscape:zoom="1.5058783"
     inkscape:cx="339.39939"
     inkscape:cy="15.770732"
     inkscape:document-units="px"
     inkscape:current-layer="layer1"
     showgrid="false"
     fit-margin-top="0"
     fit-margin-left="0"
     fit-margin-right="0"
     fit-margin-bottom="0"
     inkscape:window-width="1626"
     inkscape:window-height="1006"
     inkscape:window-x="0"
     inkscape:window-y="0"
     inkscape:window-maximized="1" />
  <metadata
     id="metadata7">
    <rdf:RDF>
      <cc:Work
         rdf:about="">
        <dc:format>image/svg+xml</dc:format>
        <dc:type
           rdf:resource="http://purl.org/dc/dcmitype/StillImage" />
        <dc:title></dc:title>
      </cc:Work>
    </rdf:RDF>
  </metadata>
  <g
     inkscape:label="Layer 1"
     inkscape:groupmode="layer"
     id="layer1"
     transform="translate(-26.237091,-24.990234)">
    <rect
       style="opacity:1;fill:#d0dfff;fill-opacity:1;stroke:#00b851;stroke-width:0;stroke-linecap:round;stroke-linejoin:round;stroke-miterlimit:4;stroke-dasharray:none;stroke-dashoffset:0;stroke-opacity:1"
       id="rect4373"
       width="386.36469"
       height="29.430122"
       x="138.84981"
       y="78.996132"
       rx="1.4104"
       ry="1.4104" />
    <rect
       style="opacity:1;fill:#5081e7;fill-opacity:1;stroke:#00b851;stroke-width:0;stroke-linecap:round;stroke-linejoin:round;stroke-miterlimit:4;stroke-dasharray:none;stroke-dashoffset:0;stroke-opacity:1"
       id="rect4387"
       width="19.921928"
       height="13.945351"
       x="478.45828"
       y="86.738503"
       rx="6.9726748"
       ry="6.9726748" />
    <path
       style="opacity:1;fill:none;fill-opacity:1;stroke:#686868;stroke-width:6;stroke-linecap:round;stroke-linejoin:round;stroke-miterlimit:4;stroke-dasharray:none;stroke-dashoffset:0;stroke-opacity:1"
       d="m 505.2168,27.990234 c -4.6503,0 -8.39453,3.74228 -8.39453,8.392578 l 0,4.605469 0,105.767579 c 0,4.6503 3.74423,8.39453 8.39453,8.39453 l 169.69922,0 c 4.65029,0 8.39257,-3.74423 8.39257,-8.39453 l 0,-105.767579 0,-4.605469 c 0,-4.650298 -3.74228,-8.392578 -8.39257,-8.392578 l -169.69922,0 z"
       id="path4331"
       inkscape:connector-curvature="0" />
    <rect
       style="opacity:1;fill:#5081e7;fill-opacity:1;stroke:#00b851;stroke-width:0;stroke-linecap:round;stroke-linejoin:round;stroke-miterlimit:4;stroke-dasharray:none;stroke-dashoffset:0;stroke-opacity:1"
       id="rect4375"
       width="28.222733"
       height="13.94535"
       x="152.40274"
       y="86.738503"
       rx="6.9726748"
       ry="6.9726748" />
    <g
       id="g4276"
       transform="translate(-285.21013,1.6297321)">
      <rect
         transform="matrix(0.93662665,0,0,0.93662665,24.289313,8.8343828)"
         style="opacity:1;fill:#505e65;fill-opacity:1;stroke:none;stroke-width:6.5;stroke-linecap:round;stroke-linejoin:round;stroke-miterlimit:4;stroke-dasharray:none;stroke-dashoffset:0;stroke-opacity:1;filter:url(#filter4231)"
         id="rect4153"
         width="119.74907"
         height="61.018635"
         x="323.39877"
         y="61.572144" />
      <rect
         ry="8.394042"
         rx="8.394042"
         y="61.572144"
         x="323.39877"
         height="61.018635"
         width="119.74907"
         id="rect4147"
         style="opacity:1;fill:#f1f3f4;fill-opacity:1;stroke:#cbcbcb;stroke-width:3;stroke-linecap:round;stroke-linejoin:round;stroke-miterlimit:4;stroke-dasharray:none;stroke-dashoffset:0;stroke-opacity:1" />
      <text
         sodipodi:linespacing="125%"
         id="text4149"
         y="99.781731"
         x="348.86392"
         style="font-style:normal;font-variant:normal;font-weight:normal;font-stretch:normal;font-size:21.53920937px;line-height:125%;font-family:'Helvetica Neue';-inkscape-font-specification:'Helvetica Neue';letter-spacing:0px;word-spacing:0px;fill:#464646;fill-opacity:1;stroke:none;stroke-width:1px;stroke-linecap:butt;stroke-linejoin:miter;stroke-opacity:1"
         xml:space="preserve"><tspan
           y="99.781731"
           x="348.86392"
           id="tspan4151"
           sodipodi:role="line">Submit</tspan></text>
      <g
         transform="matrix(0.38187467,0.22660706,-0.22660706,0.38187467,199.87995,-43.897201)"
         id="g4272">
        <path
           style="fill:#ffffff;fill-opacity:1;fill-rule:evenodd;stroke:#000000;stroke-width:1px;stroke-linecap:butt;stroke-linejoin:miter;stroke-opacity:1"
           d="m 450.51769,165.99664 -13.12562,-13.51167 1.54419,-5.79072 6.56281,-1.54419 17.7582,15.05586 0.77209,-49.02806 5.40467,-3.47443 5.40467,3.08838 1.15814,32.42801 5.01862,-11.58143 5.79072,6.56281 8.107,-6.56281 6.56281,8.8791 10.80934,0.77209 0,28.95358 -5.79072,13.12562 -11.58143,5.01862 -23.16286,-2.31628 z"
           id="path4270"
           inkscape:connector-curvature="0" />
        <path
           style="fill:#686868;fill-opacity:1"
           d="m 486.02579,192.78539 c -0.22537,-0.0108 -0.87785,-0.0634 -1.44995,-0.11676 -7.93553,-0.7407 -15.24807,-3.70529 -21.47444,-8.70599 -1.47311,-1.18312 -2.95416,-2.63267 -14.25405,-13.95085 -9.31774,-9.33281 -12.14966,-12.2048 -12.46694,-12.64329 -1.80787,-2.49852 -2.26041,-5.83109 -1.1942,-8.79429 1.07891,-2.99848 3.74881,-5.29989 6.90149,-5.94897 2.65371,-0.54635 5.44665,0.0584 7.59467,1.64449 0.39838,0.29416 1.98946,1.83675 5.34184,5.17905 l 4.77446,4.76011 0.0181,-20.70537 0.0182,-20.70536 0.13587,-0.58513 c 0.4689,-2.01938 1.36683,-3.64862 2.73805,-4.96803 5.16827,-4.97301 13.65115,-2.65158 15.65369,4.2838 0.34812,1.20563 0.35039,1.27308 0.35039,10.42096 0,7.98925 0.006,8.41854 0.11032,8.38847 0.0607,-0.0174 0.35813,-0.10481 0.66101,-0.19416 2.09749,-0.61883 4.46647,-0.38696 6.50996,0.63717 0.64474,0.32312 1.13478,0.63988 1.7494,1.13078 l 0.42553,0.33988 0.42554,-0.33988 c 1.2876,-1.02842 2.70264,-1.6828 4.27106,-1.97515 0.8352,-0.15567 2.39975,-0.15623 3.24663,-0.001 3.3412,0.61185 6.11678,3.01135 7.25259,6.26986 0.16407,0.47069 0.22439,0.57857 0.30568,0.5467 2.98986,-1.1723 6.39331,-0.72492 8.97057,1.17917 2.10424,1.55463 3.47214,3.86353 3.80507,6.42267 0.0844,0.64853 0.0937,2.10554 0.0732,11.48062 -0.0255,11.70519 -0.008,11.10198 -0.39375,13.40279 -0.8258,4.92279 -3.08895,9.7603 -6.36243,13.59973 -0.65257,0.76539 -2.19194,2.31883 -2.96543,2.99253 -4.67738,4.0739 -10.39469,6.46121 -16.60828,6.9349 -0.76745,0.0585 -3.13107,0.0703 -4.1639,0.0207 z m 4.88572,-6.41059 c 2.28277,-0.31403 4.04803,-0.79707 6.05122,-1.65581 4.65568,-1.99585 8.56024,-5.65945 10.84066,-10.17168 1.2617,-2.49649 1.88519,-4.5512 2.31468,-7.62802 0.0545,-0.39042 0.0809,-3.40531 0.0973,-11.10798 0.02,-9.38711 0.0115,-10.61945 -0.0754,-10.99425 -0.45703,-1.97067 -2.64274,-2.98677 -4.47591,-2.08077 -0.84475,0.4175 -1.50507,1.27644 -1.67156,2.17436 -0.0346,0.18677 -0.063,1.11584 -0.063,2.06461 l 0,1.72504 -3.15208,0 -3.15207,0 -9.5e-4,-4.90148 c -10e-4,-5.39611 0.002,-5.3462 -0.38998,-6.08198 -0.96047,-1.80201 -3.53911,-2.16802 -4.99776,-0.70937 -0.38561,0.38561 -0.75651,1.08129 -0.85251,1.59903 -0.0385,0.2074 -0.063,2.2379 -0.063,5.21668 l 0,4.87712 -3.15208,0 -3.15207,0 -9.4e-4,-4.90148 c -10e-4,-5.39611 0.002,-5.3462 -0.38998,-6.08198 -0.96047,-1.80201 -3.53911,-2.16802 -4.99776,-0.70937 -0.38561,0.38561 -0.75651,1.08129 -0.85251,1.59903 -0.0385,0.2074 -0.063,2.2379 -0.063,5.21668 l 1e-5,4.87712 -3.15207,0 -3.15208,0 -9.3e-4,-17.50978 c -8.2e-4,-15.39438 -0.0124,-17.55857 -0.0961,-17.91368 -0.46075,-1.95469 -2.64831,-2.96288 -4.47255,-2.0613 -0.84475,0.4175 -1.50507,1.27644 -1.67157,2.17436 -0.0413,0.22284 -0.063,9.92111 -0.063,28.21061 l 0,27.87104 -10.13392,-10.12758 c -8.01614,-8.01112 -10.19979,-10.16027 -10.44913,-10.28403 -1.34991,-0.67005 -2.84174,-0.39246 -3.83525,0.71362 -0.94725,1.05457 -1.07046,2.58711 -0.30183,3.75396 0.30809,0.4677 23.83874,23.98496 24.94078,24.92659 3.09893,2.64785 6.93678,4.86806 10.64976,6.16093 2.71728,0.94616 5.49706,1.55237 8.16812,1.78131 0.43341,0.0371 0.9015,0.0784 1.04019,0.0916 0.62518,0.0597 4.07156,-0.0228 4.72811,-0.11314 z"
           id="path4268"
           inkscape:connector-curvature="0" />
      </g>
    </g>
    <path
       style="opacity:1;fill:#686868;fill-opacity:1;stroke:none;stroke-width:3;stroke-linecap:round;stroke-linejoin:round;stroke-miterlimit:4;stroke-dasharray:none;stroke-dashoffset:0;stroke-opacity:1"
       d="m 505.2168,27.990234 c -4.6503,0 -8.39453,3.74228 -8.39453,8.392578 l 0,4.605469 186.48632,0 0,-4.605469 c 0,-4.650298 -3.74228,-8.392578 -8.39257,-8.392578 l -169.69922,0 z"
       id="rect4285"
       inkscape:connector-curvature="0" />
    <path
       style="opacity:1;fill:#f8f8f8;fill-opacity:1;stroke:none;stroke-width:3;stroke-linecap:round;stroke-linejoin:round;stroke-miterlimit:4;stroke-dasharray:none;stroke-dashoffset:0;stroke-opacity:1"
       d="m 496.82227,40.988486 0,105.767374 c 0,4.6503 3.74423,8.39453 8.39453,8.39453 l 169.69922,0 c 4.65029,0 8.39257,-3.74423 8.39257,-8.39453 l 0,-105.767374 z"
       id="rect4287"
       inkscape:connector-curvature="0"
       sodipodi:nodetypes="csssscc" />
    <g
       id="g4311"
       transform="matrix(0.74430524,0,0,0.74430524,127.47627,9.0363942)">
      <circle
         r="3.0726459"
         cy="34.607304"
         cx="505.86566"
         id="path4305"
         style="opacity:1;fill:#fc625d;fill-opacity:1;stroke:none;stroke-width:3;stroke-linecap:round;stroke-linejoin:round;stroke-miterlimit:4;stroke-dasharray:none;stroke-dashoffset:0;stroke-opacity:1" />
      <circle
         style="opacity:1;fill:#fdbc40;fill-opacity:1;stroke:none;stroke-width:3;stroke-linecap:round;stroke-linejoin:round;stroke-miterlimit:4;stroke-dasharray:none;stroke-dashoffset:0;stroke-opacity:1"
         id="circle4307"
         cx="515.08362"
         cy="34.607304"
         r="3.0726459" />
      <circle
         r="3.0726459"
         cy="34.607304"
         cx="525.01062"
         id="circle4309"
         style="opacity:1;fill:#34c749;fill-opacity:1;stroke:none;stroke-width:3;stroke-linecap:round;stroke-linejoin:round;stroke-miterlimit:4;stroke-dasharray:none;stroke-dashoffset:0;stroke-opacity:1" />
    </g>
    <path
       style="opacity:1;fill:#d1d1d1;fill-opacity:1;stroke:none;stroke-width:3;stroke-linecap:round;stroke-linejoin:round;stroke-miterlimit:4;stroke-dasharray:none;stroke-dashoffset:0;stroke-opacity:1"
       d="m 496.82227,40.988281 0,11.063452 186.48632,0 0,-11.063452 -186.48632,0 z"
       id="path4338"
       inkscape:connector-curvature="0" />
    <g
       id="g4345"
       transform="translate(2.7548831,26.913049)">
      <rect
         ry="1.4104034"
         rx="1.4104034"
         y="59.485939"
         x="504.29623"
         height="11.872188"
         width="69.487213"
         id="rect4336"
         style="opacity:1;fill:#ffffff;fill-opacity:1;stroke:#bfbfbf;stroke-width:1;stroke-linecap:round;stroke-linejoin:round;stroke-miterlimit:4;stroke-dasharray:none;stroke-dashoffset:0;stroke-opacity:1" />
      <rect
         style="opacity:1;fill:#ffffff;fill-opacity:1;stroke:#bfbfbf;stroke-width:1;stroke-linecap:round;stroke-linejoin:round;stroke-miterlimit:4;stroke-dasharray:none;stroke-dashoffset:0;stroke-opacity:1"
         id="rect4343"
         width="69.487213"
         height="11.872188"
         x="600.83765"
         y="59.485939"
         rx="1.4104034"
         ry="1.4104034" />
    </g>
    <g
       transform="translate(2.7548831,46.41888)"
       id="g4349">
      <rect
         style="opacity:1;fill:#ffffff;fill-opacity:1;stroke:#bfbfbf;stroke-width:1;stroke-linecap:round;stroke-linejoin:round;stroke-miterlimit:4;stroke-dasharray:none;stroke-dashoffset:0;stroke-opacity:1"
         id="rect4351"
         width="69.487213"
         height="11.872188"
         x="504.29623"
         y="59.485939"
         rx="1.4104034"
         ry="1.4104034" />
      <rect
         ry="1.4104034"
         rx="1.4104034"
         y="59.485939"
         x="600.83765"
         height="11.872188"
         width="69.487213"
         id="rect4353"
         style="opacity:1;fill:#ffffff;fill-opacity:1;stroke:#bfbfbf;stroke-width:1;stroke-linecap:round;stroke-linejoin:round;stroke-miterlimit:4;stroke-dasharray:none;stroke-dashoffset:0;stroke-opacity:1" />
    </g>
    <g
       transform="translate(2.7548831,7.4072681)"
       id="g4355">
      <rect
         style="opacity:1;fill:#ffffff;fill-opacity:1;stroke:#bfbfbf;stroke-width:1;stroke-linecap:round;stroke-linejoin:round;stroke-miterlimit:4;stroke-dasharray:none;stroke-dashoffset:0;stroke-opacity:1"
         id="rect4357"
         width="165.53479"
         height="11.872185"
         x="504.29623"
         y="59.485939"
         rx="1.4104034"
         ry="1.4104034" />
    </g>
    <g
       id="g4368"
       transform="matrix(0.57929854,0,0,0.57929854,479.61782,79.7619)">
      <g
         id="g4365">
        <circle
           style="opacity:1;fill:#ededed;fill-opacity:1;stroke:#bfbfbf;stroke-width:4;stroke-linecap:round;stroke-linejoin:round;stroke-miterlimit:4;stroke-dasharray:none;stroke-dashoffset:0;stroke-opacity:1"
           id="path4361"
           cx="344.99179"
           cy="124.93487"
           r="26.53783" />
      </g>
      <path
         inkscape:connector-curvature="0"
         id="path4363"
         d="m 333.06276,125.60809 8.18141,8.18142 17.57685,-17.57685"
         style="fill:none;fill-rule:evenodd;stroke:#00b851;stroke-width:5;stroke-linecap:butt;stroke-linejoin:miter;stroke-miterlimit:4;stroke-dasharray:none;stroke-opacity:1" />
    </g>
    <rect
       ry="6.9726748"
       rx="6.9726748"
       y="86.738503"
       x="186.63528"
       height="13.945351"
       width="19.921928"
       id="rect4377"
       style="opacity:1;fill:#5081e7;fill-opacity:1;stroke:#00b851;stroke-width:0;stroke-linecap:round;stroke-linejoin:round;stroke-miterlimit:4;stroke-dasharray:none;stroke-dashoffset:0;stroke-opacity:1" />
    <rect
       style="opacity:1;fill:#5081e7;fill-opacity:1;stroke:#00b851;stroke-width:0;stroke-linecap:round;stroke-linejoin:round;stroke-miterlimit:4;stroke-dasharray:none;stroke-dashoffset:0;stroke-opacity:1"
       id="rect4379"
       width="36.739258"
       height="13.945351"
       x="212.56702"
       y="86.738503"
       rx="6.9726748"
       ry="6.9726748" />
    <rect
       ry="6.9726748"
       rx="6.9726748"
       y="86.738503"
       x="298.06516"
       height="13.945351"
       width="122.51985"
       id="rect4381"
       style="opacity:1;fill:#eb7070;fill-opacity:1;stroke:#00b851;stroke-width:0;stroke-linecap:round;stroke-linejoin:round;stroke-miterlimit:4;stroke-dasharray:none;stroke-dashoffset:0;stroke-opacity:1" />
    <rect
       style="opacity:1;fill:#5081e7;fill-opacity:1;stroke:#00b851;stroke-width:0;stroke-linecap:round;stroke-linejoin:round;stroke-miterlimit:4;stroke-dasharray:none;stroke-dashoffset:0;stroke-opacity:1"
       id="rect4383"
       width="19.921928"
       height="13.945351"
       x="426.59482"
       y="86.738503"
       rx="6.9726748"
       ry="6.9726748" />
    <rect
       ry="6.9726748"
       rx="6.9726748"
       y="86.738503"
       x="452.52655"
       height="13.945351"
       width="19.921928"
       id="rect4385"
       style="opacity:1;fill:#5081e7;fill-opacity:1;stroke:#00b851;stroke-width:0;stroke-linecap:round;stroke-linejoin:round;stroke-miterlimit:4;stroke-dasharray:none;stroke-dashoffset:0;stroke-opacity:1" />
    <rect
       ry="6.9726748"
       rx="6.9726748"
       y="86.738503"
       x="255.31609"
       height="13.945351"
       width="36.739258"
       id="rect4389"
       style="opacity:1;fill:#5081e7;fill-opacity:1;stroke:#00b851;stroke-width:0;stroke-linecap:round;stroke-linejoin:round;stroke-miterlimit:4;stroke-dasharray:none;stroke-dashoffset:0;stroke-opacity:1" />
  </g>
</svg>
